<svg width="32" height="32" viewBox="0 0 32 32" fill="none" xmlns="http://www.w3.org/2000/svg">
  <defs>
    <linearGradient id="afg" x1="0" y1="0" x2="1" y2="1">
      <stop offset="0%" stop-color="#10b981" />
      <stop offset="100%" stop-color="#22c55e" />
    </linearGradient>
  </defs>
  <rect width="32" height="32" rx="7" fill="url(#afg)" />
  <g transform="translate(4 4)">
    <path d="M5 6.5A2.5 2.5 0 0 1 7.5 4h9A2.5 2.5 0 0 1 19 6.5v6A2.5 2.5 0 0 1 16.5 15H10l-3.4 3v-3H7.5A2.5 2.5 0 0 1 5 12.5v-6Z" fill="#ffffff" />
    <path d="M12 7.2l.9 2.1 2.1.9-2.1.9-.9 2.1-.9-2.1L9 10.2l2.1-.9.9-2.1Z" fill="#0d172c" />
  </g>
</svg>
